<svg width="282" height="210" viewBox="0 0 282 210" fill="none" xmlns="http://www.w3.org/2000/svg">
<rect x="27.9102" y="36.908" width="203.999" height="137.94" stroke="#C6C6C6" stroke-width="2" stroke-linejoin="round" stroke-dasharray="3 3"/>
<rect y="0.763672" width="212.953" height="160.801" fill="#F1F1F1"/>
<rect x="5.21484" y="24.2314" width="202.522" height="133.856" fill="white"/>
<rect x="128.6" y="42.0427" width="65.8878" height="4.76297" rx="2.38149" fill="#F1F1F1"/>
<rect x="23.8145" y="99.9922" width="35.7223" height="38.1038" rx="5" transform="rotate(-90 23.8145 99.9922)" fill="#5236FF"/>
<rect x="23.8145" y="140.478" width="35.7223" height="38.1038" rx="5" transform="rotate(-90 23.8145 140.478)" fill="#F1F1F1"/>
<rect x="68.2695" y="99.9922" width="35.7223" height="37.31" rx="5" transform="rotate(-90 68.2695 99.9922)" fill="#F1F1F1"/>
<rect x="68.2695" y="140.478" width="35.7223" height="37.31" rx="5" transform="rotate(-90 68.2695 140.478)" fill="#F1F1F1"/>
<rect x="111.93" y="99.9922" width="35.7223" height="37.31" rx="5" transform="rotate(-90 111.93 99.9922)" fill="#F1F1F1"/>
<rect x="111.93" y="140.478" width="35.7223" height="37.31" rx="5" transform="rotate(-90 111.93 140.478)" fill="#F1F1F1"/>
<rect x="155.59" y="99.9922" width="35.7223" height="38.1038" rx="5" transform="rotate(-90 155.59 99.9922)" fill="#F1F1F1"/>
<rect x="193.83" y="11.1943" width="13.0379" height="3.47678" rx="1.73839" fill="#C4C4C4"/>
<rect x="23.8145" y="38.8672" width="37.3754" height="3.47678" rx="1.73839" fill="#F1F1F1"/>
<rect x="23.8145" y="44.9514" width="37.3754" height="3.47678" rx="1.73839" fill="#F1F1F1"/>
<rect x="23.8145" y="51.0361" width="20.8607" height="3.47678" rx="1.73839" fill="#F1F1F1"/>
<circle cx="7.38783" cy="12.4972" r="2.17299" fill="#C4C4C4"/>
<circle cx="13.4718" cy="12.4972" r="2.17299" fill="#C4C4C4"/>
<circle cx="19.5558" cy="12.4972" r="2.17299" fill="#C4C4C4"/>
<g filter="url(#filter0_d_1_718)">
<rect x="161.941" y="90.4668" width="93.5276" height="88.1393" rx="15" fill="white"/>
</g>
<rect x="182.58" y="149.393" width="46.0421" height="17.4642" rx="8.73212" transform="rotate(-60 182.58 149.393)" fill="#5FFFFF"/>
<rect width="46.0421" height="17.4642" rx="8.73212" transform="matrix(0.5 0.866025 0.866025 -0.5 196.869 118.251)" fill="#FF46EC" style="mix-blend-mode:multiply"/>
<rect x="172.262" y="103.962" width="38.1038" height="4.76297" rx="2.38149" fill="#F1F1F1"/>
<rect x="172.262" y="111.106" width="19.8457" height="4.76297" rx="2.38149" fill="#F1F1F1"/>
<rect x="227.83" y="165.087" width="19.8457" height="4.76297" rx="2.38149" fill="#F1F1F1"/>
<rect x="242.912" y="105.55" width="4.76297" height="4.76297" rx="2.38149" fill="#F1F1F1"/>
<defs>
<filter id="filter0_d_1_718" x="145.941" y="79.4668" width="135.527" height="130.139" filterUnits="userSpaceOnUse" color-interpolation-filters="sRGB">
<feFlood flood-opacity="0" result="BackgroundImageFix"/>
<feColorMatrix in="SourceAlpha" type="matrix" values="0 0 0 0 0 0 0 0 0 0 0 0 0 0 0 0 0 0 127 0" result="hardAlpha"/>
<feOffset dx="5" dy="10"/>
<feGaussianBlur stdDeviation="10.5"/>
<feComposite in2="hardAlpha" operator="out"/>
<feColorMatrix type="matrix" values="0 0 0 0 0.700272 0 0 0 0 0.700272 0 0 0 0 0.700272 0 0 0 0.25 0"/>
<feBlend mode="normal" in2="BackgroundImageFix" result="effect1_dropShadow_1_718"/>
<feBlend mode="normal" in="SourceGraphic" in2="effect1_dropShadow_1_718" result="shape"/>
</filter>
</defs>
</svg>
