<svg width="49" height="59" viewBox="0 0 49 59" fill="none" xmlns="http://www.w3.org/2000/svg">
<path d="M41.4863 53.9676C44.4221 53.9676 46.5655 51.1575 45.8672 48.2485C43.3504 37.7572 34.0663 29.9707 23 29.9707C11.9337 29.9707 2.64658 37.7603 0.132768 48.2516C-0.565514 51.1606 1.57791 53.9707 4.51373 53.9707H41.4863V53.9676Z" fill="#C555E1"/>
<path d="M38 58.9707C44.0751 58.9707 49 54.0458 49 47.9707C49 41.8956 44.0751 36.9707 38 36.9707C31.9249 36.9707 27 41.8956 27 47.9707C27 54.0458 31.9249 58.9707 38 58.9707Z" fill="#E192F4"/>
<path d="M22.9725 26.9349C30.1371 26.9349 35.9451 21.1226 35.9451 13.9528C35.9451 6.78299 30.1371 0.970703 22.9725 0.970703C15.808 0.970703 10 6.78299 10 13.9528C10 21.1226 15.808 26.9349 22.9725 26.9349Z" fill="#C555E1"/>
<rect x="33" y="45.9707" width="11" height="3" rx="1.5" fill="white"/>
<rect x="37" y="52.9707" width="11" height="3" rx="1.5" transform="rotate(-90 37 52.9707)" fill="white"/>
</svg>
