<svg width="56" height="61" viewBox="0 0 56 61" fill="none" xmlns="http://www.w3.org/2000/svg">
<path d="M29.4003 47.2071L41.4775 53.4709C42.0084 53.7465 42.3409 54.294 42.3409 54.8926V58.1279C42.3409 59.2337 41.2469 60.0068 40.2057 59.6373L29.4844 55.824C28.8462 55.5967 28.4199 54.9928 28.4199 54.3146V47.8038C28.4208 47.3001 28.9535 46.9753 29.4003 47.2071Z" fill="#7B65FF"/>
<path d="M27.4991 47.2071L15.4219 53.4709C14.8911 53.7465 14.5586 54.294 14.5586 54.8926V58.1279C14.5586 59.2337 15.6525 60.0068 16.6937 59.6373L27.4151 55.824C28.0532 55.5967 28.4795 54.9928 28.4795 54.3146V47.8038C28.4795 47.3001 27.946 46.9753 27.4991 47.2071Z" fill="#7B65FF"/>
<path d="M46.4521 29.8365H44.1722C43.1614 29.8365 42.3418 29.0161 42.3418 28.0042V22.1644C42.3418 21.1525 43.1614 20.332 44.1722 20.332H46.4521C47.4629 20.332 48.2825 21.1525 48.2825 22.1644V28.0042C48.2825 29.0161 47.4629 29.8365 46.4521 29.8365Z" fill="#A899FF"/>
<path d="M34.623 20.332L54.6027 29.9519C57.0936 31.1518 56.0416 34.2421 53.1423 34.2421H34.623V20.332Z" fill="#7B65FF"/>
<path d="M13.0146 29.8356H10.7347C9.72386 29.8356 8.9043 29.0151 8.9043 28.0032V22.1634C8.9043 21.1515 9.72386 20.3311 10.7347 20.3311H13.0146C14.0254 20.3311 14.845 21.1515 14.845 22.1634V28.0032C14.8441 29.0151 14.0254 29.8356 13.0146 29.8356Z" fill="#A899FF"/>
<path d="M22.2198 20.3311L2.24015 29.951C-0.250709 31.1508 0.801228 34.2411 3.70053 34.2411H22.2198V20.3311Z" fill="#7B65FF"/>
<path d="M28.4224 0.635579C28.4224 0.635579 21.1035 0.210592 21.1035 18.7937C21.1035 35.5919 24.657 54.1258 27.534 59.8045C27.904 60.5346 28.9416 60.5346 29.3108 59.8045C32.1868 54.1258 35.7413 35.5919 35.7413 18.7937C35.7413 0.210592 28.4224 0.635579 28.4224 0.635579Z" fill="#5236FF"/>
<path d="M32.3033 8.77176C32.3033 7.7647 31.9032 6.79888 31.1911 6.08677C30.479 5.37467 29.5132 4.97461 28.5061 4.97461C27.4991 4.97461 26.5333 5.37467 25.8211 6.08677C25.109 6.79887 24.709 7.7647 24.709 8.77176L28.5061 8.77176H32.3033Z" fill="white"/>
</svg>
