<svg width="48" height="67" viewBox="0 0 48 67" fill="none" xmlns="http://www.w3.org/2000/svg">
<path d="M24.1504 34.6679C31.0313 34.6679 36.6094 29.0899 36.6094 22.209C36.6094 15.3281 31.0313 9.75 24.1504 9.75C17.2695 9.75 11.6914 15.3281 11.6914 22.209C11.6914 29.0899 17.2695 34.6679 24.1504 34.6679Z" fill="#907EFF"/>
<path d="M45.3703 22.3015C45.3703 24.3922 41.2649 25.8019 40.6528 27.6867C40.0196 29.6401 42.4891 33.1933 41.3071 34.8194C40.1145 36.4614 35.9617 35.2048 34.3206 36.398C32.6953 37.5807 32.6162 41.9258 30.6638 42.5593C28.7799 43.1718 26.1732 39.7242 24.0836 39.7242C21.994 39.7242 19.3872 43.1718 17.5034 42.5593C15.551 41.9258 15.4718 37.5807 13.8466 36.398C12.2055 35.2048 8.05262 36.4614 6.86006 34.8194C5.67805 33.1933 8.1476 29.6401 7.51438 27.6867C6.90227 25.8019 2.79691 24.3869 2.79691 22.3015C2.79691 20.216 6.90227 18.8011 7.51438 16.9163C8.1476 14.9628 5.67805 11.4096 6.86006 9.78351C8.05262 8.14155 12.2055 9.3981 13.8466 8.20491C15.4718 7.02228 15.551 2.67716 17.5034 2.0436C19.3872 1.43117 21.994 4.87876 24.0836 4.87876C26.1732 4.87876 28.7799 1.43117 30.6638 2.0436C32.6162 2.67716 32.6953 7.02228 34.3206 8.20491C35.9617 9.3981 40.1145 8.14155 41.3071 9.78351C42.4891 11.4096 40.0196 14.9628 40.6528 16.9163C41.2596 18.7958 45.3703 20.2107 45.3703 22.3015Z" stroke="white" stroke-width="2.5" stroke-miterlimit="10"/>
<path d="M23.75 43.4513L32.6731 63.8464C33.2694 65.2086 35.1163 65.3617 35.5754 64.0893L37.0476 59.1951C37.3325 58.3979 38.2507 58.0864 39.0739 58.5088L43.8811 61.2278C45.195 61.8983 46.4403 60.7104 45.8493 59.3535L35.4804 35.6533" stroke="white" stroke-width="2.5" stroke-miterlimit="10"/>
<path d="M25.2384 40.0512L14.8273 63.8464C14.231 65.2086 12.3841 65.3617 11.925 64.0893L10.4528 59.1951C10.1679 58.3979 9.24969 58.0864 8.4265 58.5088L3.61933 61.2278C2.3054 61.8983 1.06007 60.7104 1.65107 59.3535L12.0253 35.6533" stroke="white" stroke-width="2.5" stroke-miterlimit="10"/>
</svg>
