<svg width="53" height="75" viewBox="0 0 53 75" fill="none" xmlns="http://www.w3.org/2000/svg">
<path d="M51.6213 27.2976C51.6213 12.7092 39.4173 1.00187 24.77 2.0341C12.469 2.89647 2.48221 12.9313 1.57079 25.3638C0.769253 36.3133 6.85185 45.9169 15.9014 50.2223C17.2588 50.869 18.125 52.2475 18.125 53.7632V59.7671V64.3011C18.125 68.6783 21.2988 72.5197 25.6038 73.0032C30.691 73.5716 35.0024 69.5602 35.0024 64.5298V53.7632C35.0024 52.2475 35.8751 50.869 37.2325 50.2223C45.7326 46.1652 51.6213 37.4304 51.6213 27.2976Z" stroke="white" stroke-width="2.5" stroke-miterlimit="10"/>
<path d="M34.9966 59.4209H18.1191" stroke="white" stroke-width="2.5" stroke-miterlimit="10"/>
<path d="M26.5612 28.9238C21.655 28.9238 17.6603 32.9613 17.6603 37.9199V43.1595C20.2653 44.7274 23.3098 45.6355 26.5612 45.6355C29.8125 45.6355 32.8571 44.7339 35.4621 43.1595V37.9199C35.4621 32.9613 31.4673 28.9238 26.5612 28.9238Z" fill="#907EFF"/>
<path d="M13.2706 37.9203C13.2706 30.5118 19.2304 24.4882 26.5605 24.4882C33.8907 24.4882 39.8505 30.5118 39.8505 37.9203V39.4033C42.4231 36.3328 43.9745 32.3672 43.9745 28.0357C43.9745 18.3145 36.1789 10.4355 26.5605 10.4355C16.9422 10.4355 9.14661 18.3145 9.14661 28.0357C9.14661 32.3737 10.698 36.3393 13.2706 39.4033V37.9203V37.9203Z" fill="#907EFF"/>
</svg>
