<svg width="70" height="75" viewBox="0 0 70 75" fill="none" xmlns="http://www.w3.org/2000/svg">
<mask id="mask0_4_5058" style="mask-type:alpha" maskUnits="userSpaceOnUse" x="-23" y="-22" width="115" height="117">
<rect x="-23" y="-21.0293" width="114.804" height="116" rx="20" fill="#5236FF"/>
</mask>
<g mask="url(#mask0_4_5058)">
<path d="M69.2118 59.805C69.2118 67.6947 55.2896 74.0905 38.1157 74.0905C20.9418 74.0905 7.01953 67.6947 7.01953 59.805C7.01953 51.9153 20.9418 45.5195 38.1157 45.5195C55.2896 45.5195 69.2118 51.9153 69.2118 59.805Z" fill="#22137B"/>
<path d="M69.2118 58.9647C69.2118 66.8544 55.2896 73.2502 38.1157 73.2502C20.9418 73.2502 7.01953 66.8544 7.01953 58.9647C7.01953 51.075 20.9418 44.6791 38.1157 44.6791C55.2896 44.6791 69.2118 51.075 69.2118 58.9647Z" fill="#22137B"/>
<path d="M69.2118 58.1244C69.2118 66.014 55.2896 72.4099 38.1157 72.4099C20.9418 72.4099 7.01953 66.014 7.01953 58.1244C7.01953 50.2347 20.9418 43.8388 38.1157 43.8388C55.2896 43.8388 69.2118 50.2347 69.2118 58.1244Z" fill="#22137B"/>
<path d="M69.2118 57.284C69.2118 65.1737 55.2896 71.5696 38.1157 71.5696C20.9418 71.5696 7.01953 65.1737 7.01953 57.284C7.01953 49.3943 20.9418 42.9985 38.1157 42.9985C55.2896 42.9985 69.2118 49.3943 69.2118 57.284Z" fill="#22137B"/>
<path d="M69.2118 56.4437C69.2118 64.3334 55.2896 70.7292 38.1157 70.7292C20.9418 70.7292 7.01953 64.3334 7.01953 56.4437C7.01953 48.554 20.9418 42.1582 38.1157 42.1582C55.2896 42.1582 69.2118 48.554 69.2118 56.4437Z" fill="#22137B"/>
<path d="M69.2118 55.6034C69.2118 63.4931 55.2896 69.8889 38.1157 69.8889C20.9418 69.8889 7.01953 63.4931 7.01953 55.6034C7.01953 47.7137 20.9418 41.3178 38.1157 41.3178C55.2896 41.3178 69.2118 47.7137 69.2118 55.6034Z" fill="#22137B"/>
<path d="M69.2118 54.7631C69.2118 62.6527 55.2896 69.0486 38.1157 69.0486C20.9418 69.0486 7.01953 62.6527 7.01953 54.7631C7.01953 46.8734 20.9418 40.4775 38.1157 40.4775C55.2896 40.4775 69.2118 46.8734 69.2118 54.7631Z" fill="#22137B"/>
<path d="M69.2118 53.9227C69.2118 61.8124 55.2896 68.2083 38.1157 68.2083C20.9418 68.2083 7.01953 61.8124 7.01953 53.9227C7.01953 46.033 20.9418 39.6372 38.1157 39.6372C55.2896 39.6372 69.2118 46.033 69.2118 53.9227Z" fill="#22137B"/>
<path d="M69.2118 53.0824C69.2118 60.9721 55.2896 67.3679 38.1157 67.3679C20.9418 67.3679 7.01953 60.9721 7.01953 53.0824C7.01953 45.1927 20.9418 38.7969 38.1157 38.7969C55.2896 38.7969 69.2118 45.1927 69.2118 53.0824Z" fill="#22137B"/>
<path d="M69.2118 52.2421C69.2118 60.1318 55.2896 66.5276 38.1157 66.5276C20.9418 66.5276 7.01953 60.1318 7.01953 52.2421C7.01953 44.3524 20.9418 37.9565 38.1157 37.9565C55.2896 37.9565 69.2118 44.3524 69.2118 52.2421Z" fill="#22137B"/>
<path d="M69.2118 51.4017C69.2118 59.2914 55.2896 65.6873 38.1157 65.6873C20.9418 65.6873 7.01953 59.2914 7.01953 51.4017C7.01953 43.5121 20.9418 37.1162 38.1157 37.1162C55.2896 37.1162 69.2118 43.5121 69.2118 51.4017Z" fill="#22137B"/>
<path d="M69.2118 57.4847C69.2118 65.3744 55.2896 71.7702 38.1157 71.7702C20.9418 71.7702 7.01953 65.3744 7.01953 57.4847C7.01953 49.595 20.9418 43.1992 38.1157 43.1992C55.2896 43.1992 69.2118 49.595 69.2118 57.4847Z" fill="#836FFD"/>
<path d="M69.2118 56.6444C69.2118 64.5341 55.2896 70.9299 38.1157 70.9299C20.9418 70.9299 7.01953 64.5341 7.01953 56.6444C7.01953 48.7547 20.9418 42.3588 38.1157 42.3588C55.2896 42.3588 69.2118 48.7547 69.2118 56.6444Z" fill="#836FFD"/>
<path d="M69.2118 55.804C69.2118 63.6937 55.2896 70.0896 38.1157 70.0896C20.9418 70.0896 7.01953 63.6937 7.01953 55.804C7.01953 47.9144 20.9418 41.5185 38.1157 41.5185C55.2896 41.5185 69.2118 47.9144 69.2118 55.804Z" fill="#836FFD"/>
<path d="M69.2118 54.9637C69.2118 62.8534 55.2896 69.2493 38.1157 69.2493C20.9418 69.2493 7.01953 62.8534 7.01953 54.9637C7.01953 47.074 20.9418 40.6782 38.1157 40.6782C55.2896 40.6782 69.2118 47.074 69.2118 54.9637Z" fill="#836FFD"/>
<path d="M69.2118 54.1234C69.2118 62.0131 55.2896 68.4089 38.1157 68.4089C20.9418 68.4089 7.01953 62.0131 7.01953 54.1234C7.01953 46.2337 20.9418 39.8379 38.1157 39.8379C55.2896 39.8379 69.2118 46.2337 69.2118 54.1234Z" fill="#836FFD"/>
<path d="M69.2118 53.2831C69.2118 61.1728 55.2896 67.5686 38.1157 67.5686C20.9418 67.5686 7.01953 61.1728 7.01953 53.2831C7.01953 45.3934 20.9418 38.9975 38.1157 38.9975C55.2896 38.9975 69.2118 45.3934 69.2118 53.2831Z" fill="#836FFD"/>
<path d="M69.2118 52.4427C69.2118 60.3324 55.2896 66.7283 38.1157 66.7283C20.9418 66.7283 7.01953 60.3324 7.01953 52.4427C7.01953 44.5531 20.9418 38.1572 38.1157 38.1572C55.2896 38.1572 69.2118 44.5531 69.2118 52.4427Z" fill="#836FFD"/>
<path d="M69.2118 51.6024C69.2118 59.4921 55.2896 65.888 38.1157 65.888C20.9418 65.888 7.01953 59.4921 7.01953 51.6024C7.01953 43.7127 20.9418 37.3169 38.1157 37.3169C55.2896 37.3169 69.2118 43.7127 69.2118 51.6024Z" fill="#836FFD"/>
<path d="M69.2118 50.7621C69.2118 58.6518 55.2896 65.0476 38.1157 65.0476C20.9418 65.0476 7.01953 58.6518 7.01953 50.7621C7.01953 42.8724 20.9418 36.4765 38.1157 36.4765C55.2896 36.4765 69.2118 42.8724 69.2118 50.7621Z" fill="#836FFD"/>
<path d="M69.2118 49.9218C69.2118 57.8114 55.2896 64.2073 38.1157 64.2073C20.9418 64.2073 7.01953 57.8114 7.01953 49.9218C7.01953 42.0321 20.9418 35.6362 38.1157 35.6362C55.2896 35.6362 69.2118 42.0321 69.2118 49.9218Z" fill="#836FFD"/>
<path d="M69.2118 49.0814C69.2118 56.9711 55.2896 63.367 38.1157 63.367C20.9418 63.367 7.01953 56.9711 7.01953 49.0814C7.01953 41.1918 20.9418 34.7959 38.1157 34.7959C55.2896 34.7959 69.2118 41.1918 69.2118 49.0814Z" fill="#836FFD"/>
<ellipse cx="38.1157" cy="48.418" rx="31.0962" ry="13.6221" fill="white"/>
<path d="M45.1372 50.879C45.1372 51.6018 44.6614 52.213 43.7099 52.7128C42.7754 53.2036 41.5095 53.5203 39.9123 53.6631V54.4261C39.9123 54.667 39.7679 54.8589 39.479 55.0016C39.2072 55.1533 38.8418 55.2292 38.3831 55.2292C37.9413 55.2292 37.576 55.1533 37.2871 55.0016C36.9983 54.8589 36.8538 54.667 36.8538 54.4261V53.7033C35.9193 53.6587 35.0103 53.556 34.1267 53.3954C33.2602 53.2348 32.4955 53.0295 31.8329 52.7797C31.561 52.6904 31.3656 52.5923 31.2467 52.4852C31.1447 52.3692 31.0938 52.2264 31.0938 52.0569C31.0938 51.8338 31.2212 51.6375 31.4761 51.4679C31.7479 51.2984 32.0538 51.2136 32.3936 51.2136C32.7164 51.2136 33.1157 51.285 33.5915 51.4278C34.3731 51.6687 35.1122 51.8472 35.8089 51.9632C36.5225 52.0703 37.2616 52.1238 38.0263 52.1238C39.0457 52.1238 39.8273 52.0256 40.3711 51.8293C40.9148 51.6241 41.1867 51.3385 41.1867 50.9727C41.1867 50.7496 41.0252 50.5666 40.7024 50.4239C40.3966 50.2811 40.0143 50.1695 39.5555 50.0892C39.0967 50.0089 38.4341 49.9063 37.5675 49.7814C36.3101 49.6118 35.2736 49.4423 34.4581 49.2727C33.6425 49.1032 32.9373 48.8355 32.3426 48.4696C31.7649 48.1037 31.4761 47.613 31.4761 46.9972C31.4761 46.2744 31.9603 45.6542 32.9288 45.1367C33.9143 44.6191 35.1972 44.2889 36.7774 44.1462V43.3832C36.7774 43.1423 36.9218 42.9504 37.2107 42.8076C37.4995 42.6559 37.8648 42.5801 38.3066 42.5801C38.7654 42.5801 39.1307 42.6559 39.4026 42.8076C39.6914 42.9504 39.8358 43.1423 39.8358 43.3832V44.1194C41.3651 44.2265 42.8009 44.5299 44.1432 45.0296C44.398 45.1188 44.5765 45.2214 44.6784 45.3375C44.7973 45.4535 44.8568 45.5918 44.8568 45.7524C44.8568 45.9755 44.7209 46.1718 44.449 46.3413C44.1942 46.5109 43.8968 46.5957 43.557 46.5957C43.3701 46.5957 43.1917 46.5823 43.0217 46.5555C42.8688 46.5287 42.6479 46.4707 42.3591 46.3815C41.6624 46.1495 41.0337 45.9755 40.473 45.8595C39.9293 45.7435 39.2581 45.6855 38.4595 45.6855C37.542 45.6855 36.8029 45.7926 36.2422 46.0067C35.6984 46.2209 35.4266 46.5064 35.4266 46.8634C35.4266 47.1132 35.588 47.3185 35.9108 47.4791C36.2337 47.6308 36.6415 47.7513 37.1342 47.8405C37.627 47.9297 38.3151 48.0324 39.1987 48.1484C40.439 48.309 41.45 48.4741 42.2316 48.6436C43.0302 48.8042 43.7099 49.0675 44.2706 49.4334C44.8483 49.7903 45.1372 50.2722 45.1372 50.879Z" fill="#5236FF"/>
<path d="M69.2118 41.9173C69.2118 49.807 55.2896 56.2028 38.1157 56.2028C20.9418 56.2028 7.01953 49.807 7.01953 41.9173C7.01953 34.0276 20.9418 27.6318 38.1157 27.6318C55.2896 27.6318 69.2118 34.0276 69.2118 41.9173Z" fill="#836FFD"/>
<path d="M69.2118 41.077C69.2118 48.9667 55.2896 55.3625 38.1157 55.3625C20.9418 55.3625 7.01953 48.9667 7.01953 41.077C7.01953 33.1873 20.9418 26.7914 38.1157 26.7914C55.2896 26.7914 69.2118 33.1873 69.2118 41.077Z" fill="#836FFD"/>
<path d="M69.2118 40.2367C69.2118 48.1263 55.2896 54.5222 38.1157 54.5222C20.9418 54.5222 7.01953 48.1263 7.01953 40.2367C7.01953 32.347 20.9418 25.9511 38.1157 25.9511C55.2896 25.9511 69.2118 32.347 69.2118 40.2367Z" fill="#836FFD"/>
<path d="M69.2118 39.3963C69.2118 47.286 55.2896 53.6819 38.1157 53.6819C20.9418 53.6819 7.01953 47.286 7.01953 39.3963C7.01953 31.5066 20.9418 25.1108 38.1157 25.1108C55.2896 25.1108 69.2118 31.5066 69.2118 39.3963Z" fill="#836FFD"/>
<path d="M69.2118 38.556C69.2118 46.4457 55.2896 52.8415 38.1157 52.8415C20.9418 52.8415 7.01953 46.4457 7.01953 38.556C7.01953 30.6663 20.9418 24.2705 38.1157 24.2705C55.2896 24.2705 69.2118 30.6663 69.2118 38.556Z" fill="#836FFD"/>
<path d="M69.2118 37.7157C69.2118 45.6054 55.2896 52.0012 38.1157 52.0012C20.9418 52.0012 7.01953 45.6054 7.01953 37.7157C7.01953 29.826 20.9418 23.4301 38.1157 23.4301C55.2896 23.4301 69.2118 29.826 69.2118 37.7157Z" fill="#836FFD"/>
<path d="M69.2118 36.8754C69.2118 44.765 55.2896 51.1609 38.1157 51.1609C20.9418 51.1609 7.01953 44.765 7.01953 36.8754C7.01953 28.9857 20.9418 22.5898 38.1157 22.5898C55.2896 22.5898 69.2118 28.9857 69.2118 36.8754Z" fill="#836FFD"/>
<path d="M69.2118 36.035C69.2118 43.9247 55.2896 50.3206 38.1157 50.3206C20.9418 50.3206 7.01953 43.9247 7.01953 36.035C7.01953 28.1453 20.9418 21.7495 38.1157 21.7495C55.2896 21.7495 69.2118 28.1453 69.2118 36.035Z" fill="#836FFD"/>
<path d="M69.2118 35.1947C69.2118 43.0844 55.2896 49.4802 38.1157 49.4802C20.9418 49.4802 7.01953 43.0844 7.01953 35.1947C7.01953 27.305 20.9418 20.9092 38.1157 20.9092C55.2896 20.9092 69.2118 27.305 69.2118 35.1947Z" fill="#836FFD"/>
<path d="M69.2118 34.3544C69.2118 42.2441 55.2896 48.6399 38.1157 48.6399C20.9418 48.6399 7.01953 42.2441 7.01953 34.3544C7.01953 26.4647 20.9418 20.0688 38.1157 20.0688C55.2896 20.0688 69.2118 26.4647 69.2118 34.3544Z" fill="#836FFD"/>
<path d="M69.2118 33.5141C69.2118 41.4037 55.2896 47.7996 38.1157 47.7996C20.9418 47.7996 7.01953 41.4037 7.01953 33.5141C7.01953 25.6244 20.9418 19.2285 38.1157 19.2285C55.2896 19.2285 69.2118 25.6244 69.2118 33.5141Z" fill="#836FFD"/>
<ellipse cx="38.1157" cy="32.8506" rx="31.0962" ry="13.6221" fill="white"/>
<path d="M45.1372 35.3116C45.1372 36.0344 44.6614 36.6457 43.7099 37.1454C42.7754 37.6362 41.5095 37.953 39.9123 38.0957V38.8587C39.9123 39.0996 39.7679 39.2915 39.479 39.4343C39.2072 39.586 38.8418 39.6618 38.3831 39.6618C37.9413 39.6618 37.576 39.586 37.2871 39.4343C36.9983 39.2915 36.8538 39.0996 36.8538 38.8587V38.1359C35.9193 38.0913 35.0103 37.9886 34.1267 37.828C33.2602 37.6674 32.4955 37.4622 31.8329 37.2123C31.561 37.1231 31.3656 37.0249 31.2467 36.9178C31.1447 36.8018 31.0938 36.659 31.0938 36.4895C31.0938 36.2664 31.2212 36.0701 31.4761 35.9005C31.7479 35.731 32.0538 35.6462 32.3936 35.6462C32.7164 35.6462 33.1157 35.7176 33.5915 35.8604C34.3731 36.1013 35.1122 36.2798 35.8089 36.3958C36.5225 36.5029 37.2616 36.5564 38.0263 36.5564C39.0457 36.5564 39.8273 36.4583 40.3711 36.2619C40.9148 36.0567 41.1867 35.7711 41.1867 35.4053C41.1867 35.1822 41.0252 34.9993 40.7024 34.8565C40.3966 34.7137 40.0143 34.6022 39.5555 34.5219C39.0967 34.4415 38.4341 34.3389 37.5675 34.214C36.3101 34.0444 35.2736 33.8749 34.4581 33.7053C33.6425 33.5358 32.9373 33.2681 32.3426 32.9022C31.7649 32.5364 31.4761 32.0456 31.4761 31.4298C31.4761 30.707 31.9603 30.0869 32.9288 29.5693C33.9143 29.0517 35.1972 28.7216 36.7774 28.5788V27.8158C36.7774 27.5749 36.9218 27.383 37.2107 27.2402C37.4995 27.0885 37.8648 27.0127 38.3066 27.0127C38.7654 27.0127 39.1307 27.0885 39.4026 27.2402C39.6914 27.383 39.8358 27.5749 39.8358 27.8158V28.552C41.3651 28.6591 42.8009 28.9625 44.1432 29.4622C44.398 29.5514 44.5765 29.6541 44.6784 29.7701C44.7973 29.8861 44.8568 30.0244 44.8568 30.185C44.8568 30.4081 44.7209 30.6044 44.449 30.774C44.1942 30.9435 43.8968 31.0283 43.557 31.0283C43.3701 31.0283 43.1917 31.0149 43.0217 30.9881C42.8688 30.9614 42.6479 30.9034 42.3591 30.8141C41.6624 30.5821 41.0337 30.4081 40.473 30.2921C39.9293 30.1761 39.2581 30.1181 38.4595 30.1181C37.542 30.1181 36.8029 30.2252 36.2422 30.4393C35.6984 30.6535 35.4266 30.9391 35.4266 31.296C35.4266 31.5459 35.588 31.7511 35.9108 31.9117C36.2337 32.0634 36.6415 32.1839 37.1342 32.2731C37.627 32.3624 38.3151 32.465 39.1987 32.581C40.439 32.7416 41.45 32.9067 42.2316 33.0762C43.0302 33.2369 43.7099 33.5001 44.2706 33.866C44.8483 34.2229 45.1372 34.7048 45.1372 35.3116Z" fill="#5236FF"/>
<path d="M62.1923 23.4299C62.1923 31.3196 48.2701 37.7154 31.0962 37.7154C13.9222 37.7154 0 31.3196 0 23.4299C0 15.5402 13.9222 9.14435 31.0962 9.14435C48.2701 9.14435 62.1923 15.5402 62.1923 23.4299Z" fill="#836FFD"/>
<path d="M62.1923 22.5896C62.1923 30.4792 48.2701 36.8751 31.0962 36.8751C13.9222 36.8751 0 30.4792 0 22.5896C0 14.6999 13.9222 8.30402 31.0962 8.30402C48.2701 8.30402 62.1923 14.6999 62.1923 22.5896Z" fill="#836FFD"/>
<path d="M62.1923 21.7492C62.1923 29.6389 48.2701 36.0348 31.0962 36.0348C13.9222 36.0348 0 29.6389 0 21.7492C0 13.8595 13.9222 7.4637 31.0962 7.4637C48.2701 7.4637 62.1923 13.8595 62.1923 21.7492Z" fill="#836FFD"/>
<path d="M62.1923 20.9089C62.1923 28.7986 48.2701 35.1944 31.0962 35.1944C13.9222 35.1944 0 28.7986 0 20.9089C0 13.0192 13.9222 6.62337 31.0962 6.62337C48.2701 6.62337 62.1923 13.0192 62.1923 20.9089Z" fill="#836FFD"/>
<path d="M62.1923 20.0686C62.1923 27.9583 48.2701 34.3541 31.0962 34.3541C13.9222 34.3541 0 27.9583 0 20.0686C0 12.1789 13.9222 5.78304 31.0962 5.78304C48.2701 5.78304 62.1923 12.1789 62.1923 20.0686Z" fill="#836FFD"/>
<path d="M62.1923 19.2283C62.1923 27.1179 48.2701 33.5138 31.0962 33.5138C13.9222 33.5138 0 27.1179 0 19.2283C0 11.3386 13.9222 4.94272 31.0962 4.94272C48.2701 4.94272 62.1923 11.3386 62.1923 19.2283Z" fill="#836FFD"/>
<path d="M62.1923 18.3879C62.1923 26.2776 48.2701 32.6735 31.0962 32.6735C13.9222 32.6735 0 26.2776 0 18.3879C0 10.4982 13.9222 4.10239 31.0962 4.10239C48.2701 4.10239 62.1923 10.4982 62.1923 18.3879Z" fill="#836FFD"/>
<path d="M62.1923 17.5476C62.1923 25.4373 48.2701 31.8331 31.0962 31.8331C13.9222 31.8331 0 25.4373 0 17.5476C0 9.65792 13.9222 3.26207 31.0962 3.26207C48.2701 3.26207 62.1923 9.65792 62.1923 17.5476Z" fill="#836FFD"/>
<path d="M62.1923 16.7073C62.1923 24.597 48.2701 30.9928 31.0962 30.9928C13.9222 30.9928 0 24.597 0 16.7073C0 8.81759 13.9222 2.42174 31.0962 2.42174C48.2701 2.42174 62.1923 8.81759 62.1923 16.7073Z" fill="#836FFD"/>
<path d="M62.1923 15.867C62.1923 23.7566 48.2701 30.1525 31.0962 30.1525C13.9222 30.1525 0 23.7566 0 15.867C0 7.97727 13.9222 1.58141 31.0962 1.58141C48.2701 1.58141 62.1923 7.97727 62.1923 15.867Z" fill="#836FFD"/>
<path d="M62.1923 15.0266C62.1923 22.9163 48.2701 29.3122 31.0962 29.3122C13.9222 29.3122 0 22.9163 0 15.0266C0 7.13694 13.9222 0.741089 31.0962 0.741089C48.2701 0.741089 62.1923 7.13694 62.1923 15.0266Z" fill="#836FFD"/>
<ellipse cx="31.0962" cy="14.3632" rx="31.0962" ry="13.6221" fill="white"/>
<path d="M38.1176 16.8242C38.1176 17.547 37.6419 18.1582 36.6904 18.6579C35.7558 19.1487 34.49 19.4655 32.8928 19.6083V20.3713C32.8928 20.6122 32.7483 20.8041 32.4595 20.9468C32.1876 21.0985 31.8223 21.1744 31.3635 21.1744C30.9218 21.1744 30.5565 21.0985 30.2676 20.9468C29.9787 20.8041 29.8343 20.6122 29.8343 20.3713V19.6485C28.8998 19.6038 27.9907 19.5012 27.1072 19.3406C26.2406 19.18 25.476 18.9747 24.8133 18.7249C24.5415 18.6356 24.3461 18.5375 24.2271 18.4304C24.1252 18.3144 24.0742 18.1716 24.0742 18.0021C24.0742 17.779 24.2017 17.5827 24.4565 17.4131C24.7284 17.2436 25.0342 17.1588 25.3741 17.1588C25.6969 17.1588 26.0962 17.2302 26.572 17.373C27.3536 17.6139 28.0927 17.7924 28.7893 17.9084C29.503 18.0155 30.2421 18.069 31.0067 18.069C32.0262 18.069 32.8078 17.9708 33.3515 17.7745C33.8953 17.5693 34.1671 17.2837 34.1671 16.9179C34.1671 16.6948 34.0057 16.5118 33.6829 16.3691C33.377 16.2263 32.9947 16.1147 32.536 16.0344C32.0772 15.9541 31.4145 15.8515 30.548 15.7266C29.2906 15.557 28.2541 15.3875 27.4385 15.2179C26.6229 15.0484 25.9178 14.7807 25.3231 14.4148C24.7454 14.0489 24.4565 13.5581 24.4565 12.9424C24.4565 12.2196 24.9408 11.5994 25.9093 11.0819C26.8948 10.5643 28.1777 10.2341 29.7579 10.0914V9.32839C29.7579 9.08745 29.9023 8.8956 30.1911 8.75282C30.48 8.60112 30.8453 8.52527 31.2871 8.52527C31.7459 8.52527 32.1112 8.60112 32.383 8.75282C32.6719 8.8956 32.8163 9.08745 32.8163 9.32839V10.0646C34.3455 10.1717 35.7813 10.4751 37.1236 10.9748C37.3785 11.064 37.5569 11.1666 37.6589 11.2826C37.7778 11.3986 37.8373 11.537 37.8373 11.6976C37.8373 11.9207 37.7014 12.117 37.4295 12.2865C37.1746 12.4561 36.8773 12.5409 36.5374 12.5409C36.3505 12.5409 36.1721 12.5275 36.0022 12.5007C35.8493 12.4739 35.6284 12.4159 35.3395 12.3267C34.6429 12.0947 34.0142 11.9207 33.4535 11.8047C32.9098 11.6887 32.2386 11.6307 31.44 11.6307C30.5225 11.6307 29.7833 11.7377 29.2226 11.9519C28.6789 12.1661 28.407 12.4516 28.407 12.8086C28.407 13.0584 28.5685 13.2637 28.8913 13.4243C29.2141 13.576 29.6219 13.6965 30.1147 13.7857C30.6074 13.8749 31.2956 13.9776 32.1791 14.0936C33.4195 14.2542 34.4305 14.4193 35.2121 14.5888C36.0107 14.7494 36.6904 15.0127 37.2511 15.3785C37.8288 15.7355 38.1176 16.2174 38.1176 16.8242Z" fill="#5236FF"/>
</g>
</svg>
