<svg width="48" height="47" viewBox="0 0 48 47" fill="none" xmlns="http://www.w3.org/2000/svg">
<path d="M0.122656 11.2181C0.139024 11.3099 0.152275 11.4018 0.157731 11.4944C0.227101 12.6832 1.1258 22.1681 12.4246 33.7167C12.4246 33.7167 22.1847 43.6632 32.457 45.7545C32.5014 45.7637 32.5451 45.7736 32.5895 45.7859C33.2115 45.9551 38.4992 47.2916 41.2249 44.5581L45.1081 40.7445C45.1432 40.7101 45.1798 40.6764 45.2172 40.6442C45.6046 40.3113 48.3015 37.8197 45.6038 35.1704C42.8735 32.4889 39.4314 29.2196 39.0417 28.8491C39.023 28.8315 39.0051 28.8139 38.9872 28.7955C38.7759 28.5797 36.7696 26.6385 34.4196 28.412C34.3518 28.4633 34.2879 28.5207 34.2271 28.5804L30.425 32.3244C29.5731 33.1319 28.22 33.1212 27.3805 32.3006L14.3911 19.5931C13.5189 18.7396 13.5415 17.3457 14.441 16.5197L17.4808 13.7304C17.4808 13.7304 20.8114 10.7022 17.2345 7.43131L11.925 2.21693C11.8922 2.18478 11.861 2.15187 11.8299 2.11742C11.4869 1.73775 8.94203 -0.861786 5.95599 2.03169C5.8648 2.11972 5.76581 2.19932 5.66059 2.26975C4.64731 2.95255 -0.67783 6.76764 0.122656 11.2181Z" fill="white"/>
<path d="M35.9092 20.5071C36.7316 20.5066 37.4087 19.8363 37.2923 19.0223C37.1485 18.017 36.8595 17.0353 36.4322 16.1084C35.7964 14.7293 34.8696 13.5043 33.7155 12.5175C32.5613 11.5306 31.2071 10.8054 29.7461 10.3917C28.764 10.1136 27.7493 9.9806 26.7339 9.99472C25.9116 10.0062 25.3547 10.7792 25.482 11.5917C25.6094 12.4041 26.3752 12.9439 27.1969 12.9784C27.7833 13.0031 28.3666 13.0962 28.9346 13.2571C29.982 13.5537 30.9527 14.0735 31.7801 14.781C32.6075 15.4884 33.2719 16.3666 33.7276 17.3551C33.9748 17.8913 34.1574 18.453 34.2729 19.0285C34.4346 19.8348 35.0868 20.5075 35.9092 20.5071Z" fill="#F9A1E5"/>
<path d="M42.0619 20.6764C43.0524 20.7539 43.9292 20.012 43.8921 19.019C43.8248 17.2131 43.4438 15.4279 42.7618 13.7446C41.8539 11.5038 40.4375 9.50486 38.6243 7.9056C36.8112 6.30634 34.651 5.15058 32.3144 4.52963C30.559 4.06313 28.7403 3.90806 26.9401 4.06675C25.9503 4.15399 25.3236 5.11652 25.5242 6.08966C25.7248 7.06279 26.6779 7.67463 27.6701 7.62169C28.919 7.55504 30.1744 7.68393 31.3903 8.00705C33.1877 8.48473 34.8494 9.3738 36.2442 10.604C37.639 11.8343 38.7286 13.372 39.427 15.0957C39.8994 16.2617 40.184 17.4912 40.2739 18.7386C40.3452 19.7297 41.0713 20.5989 42.0619 20.6764Z" fill="#F9A1E5"/>
</svg>
