<svg width="24" height="18" viewBox="0 0 24 18" fill="none" xmlns="http://www.w3.org/2000/svg">
<g clip-path="url(#clip0_34_1030)">
<path d="M4.36412 17.9105V16.7192C4.36412 16.2624 4.07599 15.9646 3.58211 15.9646C3.33522 15.9646 3.0677 16.044 2.88249 16.3022C2.73851 16.0837 2.53277 15.9646 2.22411 15.9646C2.01827 15.9646 1.81262 16.0241 1.64793 16.2426V16.0043H1.21582V17.9105H1.64793V16.8581C1.64793 16.5206 1.83315 16.3617 2.12128 16.3617C2.40923 16.3617 2.55339 16.5404 2.55339 16.8581V17.9105H2.9855V16.8581C2.9855 16.5206 3.19115 16.3617 3.45866 16.3617C3.7468 16.3617 3.89077 16.5404 3.89077 16.8581V17.9105H4.36412ZM10.7634 16.0043H10.0638V15.4285H9.63172V16.0043H9.24076V16.3815H9.63163V17.2553C9.63163 17.6921 9.81685 17.9502 10.3107 17.9502C10.4959 17.9502 10.7016 17.8907 10.8458 17.8113L10.7222 17.4538C10.5988 17.5332 10.4548 17.5531 10.3519 17.5531C10.1461 17.5531 10.0638 17.434 10.0638 17.2354V16.3815H10.7634V16.0043ZM14.4261 15.9645C14.1792 15.9645 14.0146 16.0837 13.9117 16.2426V16.0043H13.4796V17.9105H13.9117V16.8383C13.9117 16.5206 14.0556 16.3419 14.3232 16.3419C14.4054 16.3419 14.5084 16.3618 14.5907 16.3816L14.7141 15.9845C14.6318 15.9646 14.5084 15.9646 14.4261 15.9646V15.9645ZM8.89095 16.1631C8.68511 16.0241 8.39707 15.9646 8.08841 15.9646C7.59463 15.9646 7.26544 16.2029 7.26544 16.5801C7.26544 16.8979 7.51233 17.0765 7.94444 17.1361L8.15018 17.156C8.37655 17.1957 8.49999 17.2553 8.49999 17.3546C8.49999 17.4935 8.3354 17.5928 8.04726 17.5928C7.75922 17.5928 7.53286 17.4935 7.38879 17.3943L7.18304 17.712C7.40941 17.8708 7.71807 17.9502 8.02664 17.9502C8.60282 17.9502 8.9321 17.6921 8.9321 17.3347C8.9321 16.9971 8.66459 16.8184 8.25301 16.7589L8.04726 16.739C7.86205 16.7191 7.71807 16.6794 7.71807 16.5603C7.71807 16.4213 7.86205 16.3419 8.08841 16.3419C8.3354 16.3419 8.58229 16.4411 8.70574 16.5007L8.89095 16.1631ZM20.3728 15.9646C20.1258 15.9646 19.9612 16.0837 19.8583 16.2426V16.0043H19.4262V17.9105H19.8583V16.8383C19.8583 16.5206 20.0023 16.3419 20.2698 16.3419C20.3521 16.3419 20.4551 16.3618 20.5374 16.3816L20.6608 15.9845C20.5785 15.9646 20.4551 15.9646 20.3728 15.9646ZM14.8582 16.9574C14.8582 17.5332 15.2697 17.9502 15.9076 17.9502C16.1957 17.9502 16.4014 17.8907 16.6071 17.7319L16.4014 17.3943C16.2368 17.5134 16.0722 17.5729 15.887 17.5729C15.5372 17.5729 15.2903 17.3347 15.2903 16.9574C15.2903 16.6 15.5372 16.3617 15.887 16.3419C16.0722 16.3419 16.2368 16.4014 16.4014 16.5206L16.6071 16.183C16.4014 16.0241 16.1957 15.9646 15.9076 15.9646C15.2697 15.9646 14.8582 16.3816 14.8582 16.9574ZM18.8501 16.9574V16.0043H18.418V16.2426C18.2739 16.0639 18.0682 15.9646 17.8006 15.9646C17.2451 15.9646 16.813 16.3816 16.813 16.9574C16.813 17.5332 17.2451 17.9502 17.8006 17.9502C18.0887 17.9502 18.2945 17.851 18.418 17.6722V17.9105H18.8501V16.9574ZM17.2656 16.9574C17.2656 16.6198 17.492 16.3419 17.8623 16.3419C18.2121 16.3419 18.4591 16.6 18.4591 16.9574C18.4591 17.295 18.2121 17.5729 17.8623 17.5729C17.492 17.553 17.2656 17.295 17.2656 16.9574ZM12.1009 15.9646C11.5248 15.9646 11.1132 16.3617 11.1132 16.9574C11.1132 17.5531 11.5247 17.9502 12.1215 17.9502C12.4095 17.9502 12.6976 17.8708 12.924 17.6921L12.7182 17.3943C12.5536 17.5134 12.3478 17.5928 12.1421 17.5928C11.8746 17.5928 11.6071 17.4737 11.5453 17.136H13.0063V16.9773C13.0269 16.3617 12.6566 15.9646 12.1009 15.9646ZM12.1009 16.322C12.3684 16.322 12.5537 16.4809 12.5947 16.7788H11.5659C11.6071 16.5206 11.7923 16.322 12.1009 16.322ZM22.8214 16.9574V15.2498H22.3892V16.2426C22.2452 16.0639 22.0394 15.9646 21.7719 15.9646C21.2164 15.9646 20.7843 16.3816 20.7843 16.9574C20.7843 17.5332 21.2164 17.9502 21.7719 17.9502C22.0601 17.9502 22.2658 17.851 22.3892 17.6722V17.9105H22.8214V16.9574ZM21.237 16.9574C21.237 16.6198 21.4633 16.3419 21.8337 16.3419C22.1835 16.3419 22.4304 16.6 22.4304 16.9574C22.4304 17.295 22.1835 17.5729 21.8337 17.5729C21.4633 17.553 21.237 17.295 21.237 16.9574ZM6.79209 16.9574V16.0043H6.35998V16.2426C6.21591 16.0639 6.01017 15.9646 5.74265 15.9646C5.1871 15.9646 4.75499 16.3816 4.75499 16.9574C4.75499 17.5332 5.1871 17.9502 5.74265 17.9502C6.03079 17.9502 6.23653 17.851 6.35998 17.6722V17.9105H6.79209V16.9574ZM5.1871 16.9574C5.1871 16.6198 5.41346 16.3419 5.7838 16.3419C6.13361 16.3419 6.3806 16.6 6.3806 16.9574C6.3806 17.295 6.13361 17.5729 5.7838 17.5729C5.41346 17.553 5.1871 17.295 5.1871 16.9574Z" fill="black"/>
<path d="M8.74707 1.52893H15.2287V12.7677H8.74707V1.52893Z" fill="#FF5F00"/>
<path d="M9.15961 7.14835C9.15961 4.86488 10.2707 2.83948 11.9785 1.52891C10.7234 0.575819 9.13908 0 7.41064 0C3.31573 0 0.00292969 3.19685 0.00292969 7.14835C0.00292969 11.0998 3.31573 14.2967 7.41055 14.2967C9.13898 14.2967 10.7234 13.7209 11.9785 12.7677C10.2707 11.477 9.15961 9.43182 9.15961 7.14835Z" fill="#EB001B"/>
<path d="M23.9736 7.14835C23.9736 11.0998 20.6608 14.2967 16.566 14.2967C14.8376 14.2967 13.2532 13.7209 11.998 12.7677C13.7265 11.4572 14.8171 9.43182 14.8171 7.14835C14.8171 4.86488 13.7059 2.83948 11.998 1.52891C13.2531 0.575819 14.8376 0 16.566 0C20.6608 0 23.9736 3.21675 23.9736 7.14835Z" fill="#F79E1B"/>
</g>
<defs>
<clipPath id="clip0_34_1030">
<rect width="24" height="18" fill="white"/>
</clipPath>
</defs>
</svg>
