<svg width="51" height="54" viewBox="0 0 51 54" fill="none" xmlns="http://www.w3.org/2000/svg">
<path d="M43.1645 37.834L34.4814 46.4905C33.3689 47.599 31.8702 48.2177 30.2995 48.2177H7.42264C4.15231 48.2177 1.5 45.5625 1.5 42.2886V7.89981C1.5 4.62591 4.15231 1.9707 7.42264 1.9707H38.9826C42.2529 1.9707 44.9052 4.62591 44.9052 7.89981V33.6321C44.9103 35.2098 44.282 36.7204 43.1645 37.834Z" stroke="white" stroke-width="2.5" stroke-miterlimit="10"/>
<path d="M48.4288 43.3663L39.7457 52.0228C38.6333 53.1313 37.1346 53.7499 35.5638 53.7499H12.6922C9.42184 53.7499 6.76953 51.0947 6.76953 47.8208V13.432C6.76953 10.1581 9.42184 7.50293 12.6922 7.50293H44.2521C47.5224 7.50293 50.1747 10.1581 50.1747 13.432V39.1643C50.1747 40.742 49.5464 42.2526 48.4288 43.3663Z" fill="#907EFF"/>
<path d="M15.2266 21.5204C15.2266 20.877 15.7481 20.3555 16.3915 20.3555H41.2434C41.8868 20.3555 42.4083 20.877 42.4083 21.5204C42.4083 22.1638 41.8868 22.6853 41.2434 22.6853H16.3915C15.7481 22.6853 15.2266 22.1638 15.2266 21.5204Z" fill="white"/>
<path d="M15.2266 26.9569C15.2266 26.3136 15.7481 25.792 16.3915 25.792H41.2434C41.8868 25.792 42.4083 26.3136 42.4083 26.9569C42.4083 27.6003 41.8868 28.1219 41.2434 28.1219H16.3915C15.7481 28.1219 15.2266 27.6003 15.2266 26.9569Z" fill="white"/>
<path d="M15.2266 32.3925C15.2266 31.7491 15.7481 31.2275 16.3915 31.2275H41.2434C41.8868 31.2275 42.4083 31.7491 42.4083 32.3925C42.4083 33.0358 41.8868 33.5574 41.2434 33.5574H16.3915C15.7481 33.5574 15.2266 33.0358 15.2266 32.3925Z" fill="white"/>
<path d="M15.2266 37.829C15.2266 37.1856 15.7481 36.6641 16.3915 36.6641H28.8174C29.4608 36.6641 29.9824 37.1856 29.9824 37.829C29.9824 38.4724 29.4608 38.9939 28.8174 38.9939H16.3915C15.7481 38.9939 15.2266 38.4724 15.2266 37.829Z" fill="white"/>
</svg>
