<svg width="61" height="68" viewBox="0 0 61 68" fill="none" xmlns="http://www.w3.org/2000/svg">
<path d="M54.6622 65.9384C57.7448 65.9384 59.9924 63.0493 59.2603 60.0633C56.6181 49.3047 46.8728 41.3154 35.2574 41.3154C23.6419 41.3154 13.8909 49.3047 11.2544 60.069C10.5223 63.055 12.7699 65.9384 15.8525 65.9384H54.6622Z" stroke="white" stroke-width="2.5" stroke-miterlimit="10"/>
<path d="M35.2575 35.936C42.6517 35.936 48.6459 29.9635 48.6459 22.5959C48.6459 15.2284 42.6517 9.25586 35.2575 9.25586C27.8633 9.25586 21.8691 15.2284 21.8691 22.5959C21.8691 29.9635 27.8633 35.936 35.2575 35.936Z" stroke="white" stroke-width="2.5" stroke-miterlimit="10"/>
<path d="M6.91298 58.1884C9.12055 49.1962 14.8053 42.1358 24.7851 38.8535C13.5414 39.2296 3.21846 46.3812 0.639152 56.8834C-0.0928903 59.8694 2.15471 62.7528 5.23729 62.7528H7.74225C6.87295 61.4764 6.50693 59.8466 6.91298 58.1884Z" fill="#907EFF"/>
<path d="M17.8587 19.9409C17.8587 11.6895 24.5729 4.99951 32.8541 4.99951C35.7823 4.99951 38.516 5.83718 40.8208 7.28459C38.2758 3.48372 33.9293 0.970703 28.9937 0.970703C21.1586 0.970703 14.8047 7.30168 14.8047 15.1143C14.8047 18.8695 16.2802 22.2829 18.6765 24.8187C18.1503 23.2858 17.8587 21.6504 17.8587 19.9409Z" fill="#907EFF"/>
</svg>
