<svg width="97" height="98" viewBox="0 0 97 98" fill="none" xmlns="http://www.w3.org/2000/svg">
<rect y="0.0253906" width="97" height="97" rx="20" fill="#F563D3"/>
<path d="M24.6227 36.2729C24.639 36.3647 24.6523 36.4566 24.6577 36.5492C24.7271 37.738 25.6258 47.2229 36.9246 58.7716C36.9246 58.7716 46.6847 68.7181 56.957 70.8093C57.0014 70.8185 57.0451 70.8285 57.0895 70.8407C57.7115 71.0099 62.9992 72.3464 65.7249 69.6129L69.6081 65.7993C69.6432 65.7649 69.6798 65.7312 69.7172 65.699C70.1046 65.3661 72.8015 62.8745 70.1038 60.2252C67.3735 57.5437 63.9314 54.2744 63.5417 53.9039C63.523 53.8863 63.5051 53.8687 63.4872 53.8504C63.2759 53.6345 61.2696 51.6933 58.9196 53.4669C58.8518 53.5181 58.7879 53.5756 58.7271 53.6353L54.925 57.3792C54.0731 58.1867 52.72 58.176 51.8805 57.3554L38.8911 44.6479C38.0189 43.7944 38.0415 42.4005 38.941 41.5745L41.9808 38.7852C41.9808 38.7852 45.3114 35.757 41.7345 32.4861L36.425 27.2717C36.3922 27.2396 36.361 27.2067 36.3299 27.1722C35.9869 26.7926 33.442 24.193 30.456 27.0865C30.3648 27.1745 30.2658 27.2541 30.1606 27.3246C29.1473 28.0074 23.8222 31.8225 24.6227 36.2729Z" fill="white"/>
<path d="M60.4092 45.5619C61.2316 45.5614 61.9087 44.8912 61.7923 44.0771C61.6485 43.0718 61.3595 42.0901 60.9322 41.1632C60.2964 39.7841 59.3696 38.5591 58.2155 37.5723C57.0613 36.5854 55.7071 35.8602 54.2461 35.4465C53.264 35.1684 52.2493 35.0354 51.2339 35.0495C50.4116 35.061 49.8547 35.834 49.982 36.6465C50.1094 37.4589 50.8752 37.9987 51.6969 38.0332C52.2833 38.0579 52.8666 38.151 53.4346 38.3119C54.482 38.6085 55.4527 39.1284 56.2801 39.8358C57.1075 40.5432 57.7719 41.4214 58.2276 42.41C58.4748 42.9461 58.6574 43.5078 58.7729 44.0833C58.9346 44.8896 59.5868 45.5623 60.4092 45.5619Z" fill="#F9A1E5"/>
<path d="M66.5619 45.7313C67.5524 45.8088 68.4292 45.0669 68.3921 44.074C68.3248 42.2681 67.9438 40.4829 67.2618 38.7995C66.3539 36.5587 64.9375 34.5598 63.1243 32.9605C61.3112 31.3613 59.151 30.2055 56.8144 29.5846C55.059 29.1181 53.2403 28.963 51.4401 29.1217C50.4503 29.2089 49.8236 30.1715 50.0242 31.1446C50.2248 32.1177 51.1779 32.7296 52.1701 32.6766C53.419 32.61 54.6744 32.7389 55.8903 33.062C57.6877 33.5397 59.3494 34.4287 60.7442 35.659C62.139 36.8892 63.2286 38.4269 63.927 40.1506C64.3994 41.3166 64.684 42.5461 64.7739 43.7936C64.8452 44.7846 65.5713 45.6538 66.5619 45.7313Z" fill="#F9A1E5"/>
</svg>
