<svg width="40" height="59" viewBox="0 0 40 59" fill="none" xmlns="http://www.w3.org/2000/svg">
<path d="M38.5037 39.5768L31.81 33.5696C29.7483 31.7194 26.4947 33.4133 26.828 36.1633L28.4943 49.9101C28.6016 50.7952 29.097 51.5867 29.8461 52.07L34.8736 55.3135C36.8698 56.6014 39.4999 55.1683 39.4999 52.7926V41.8095C39.4999 40.9575 39.1377 40.1458 38.5037 39.5768Z" fill="#F78F8F"/>
<path d="M0.996339 39.5768L7.69003 33.5696C9.75172 31.7194 13.0053 33.4133 12.672 36.1633L11.0057 49.9101C10.8984 50.7952 10.403 51.5867 9.65387 52.07L4.62645 55.3135C2.63016 56.6014 6.77109e-05 55.1683 6.77109e-05 52.7926V41.8095C6.77109e-05 40.9575 0.362288 40.1458 0.996339 39.5768Z" fill="#F78F8F"/>
<path d="M25.6417 46.4132H14.2677C11.0658 46.4132 8.41102 43.8932 8.39113 40.6915C8.23128 14.961 15.907 3.52864 20.038 0.970703C29.3856 7.43829 31.5372 27.652 31.4574 40.7933C31.4381 43.9589 28.8074 46.4132 25.6417 46.4132Z" fill="#F16A6A"/>
<rect x="16.7793" y="21.9443" width="7" height="7" rx="3.5" transform="rotate(-90 16.7793 21.9443)" fill="white"/>
</svg>
